<svg width="408" height="81" viewBox="0 0 408 81" fill="none" xmlns="http://www.w3.org/2000/svg">
<g clip-path="url(#clip0_15_59)">
<path d="M261.029 65.4321L245.455 44.3666L229.898 65.4321H223.489L242.212 39.9806L225.113 16.8457H231.522L245.455 35.7139L259.388 16.8457H265.793L248.706 39.9764L267.433 65.4321H261.029ZM139.674 65.4235L120.93 39.9764L138.029 16.8457H131.62L117.683 35.7182L103.758 16.8457H97.3663L114.457 39.9764L95.717 65.4235H102.135L117.691 44.3666L133.26 65.4235H139.674Z" fill="#FBF503"/>
<path d="M175.311 41.8158C174.345 40.9955 173.27 40.3133 172.115 39.7889C173.887 38.8506 175.369 37.4491 176.401 35.7348C177.434 34.0206 177.979 32.0583 177.977 30.0588C177.977 26.9503 176.828 16.8413 162.13 16.8413H142.335V37.7875H135.742C134.888 38.8989 132.944 41.5688 132.205 42.6632H142.335V65.4234L162.134 65.4276C172.859 65.4276 179.52 60.0027 179.52 51.2435C179.52 47.4196 178.071 44.1706 175.311 41.8158V41.8158ZM147.808 21.9128H162.134C166.01 21.9128 172.504 22.8752 172.504 29.633C172.504 34.7429 168.723 37.7875 162.134 37.7875H147.808V21.9128ZM162.13 60.3604H147.804V42.6759H162.13C167.561 42.6759 174.059 44.1706 174.059 51.137C174.059 59.1595 166.586 60.3604 162.13 60.3604V60.3604ZM205.271 15.7256C191.577 15.7256 182.006 26.1625 182.006 41.1089C182.006 56.0766 191.577 66.505 205.271 66.505C218.952 66.505 228.497 56.0766 228.497 41.1089C228.497 26.1625 218.952 15.7256 205.271 15.7256V15.7256ZM205.271 61.3653C194.837 61.3653 187.526 53.032 187.526 41.1089C187.526 29.1859 194.837 20.8568 205.271 20.8568C215.687 20.8568 222.955 29.1859 222.955 41.1089C222.955 53.032 215.687 61.3653 205.271 61.3653ZM12.1401 11.6462L12.1017 11.6803V11.6846C8.26754 15.4468 5.22395 19.9326 3.14862 24.8801C1.07329 29.8276 0.00782735 35.1376 0.014442 40.5C0.00230134 49.3648 2.92148 57.9866 8.3204 65.0316C8.37594 65.0998 8.46139 65.1381 8.5383 65.0998C8.61093 65.0572 8.61521 64.9678 8.5853 64.8911C5.48766 55.3442 21.3219 32.205 29.504 22.5047C29.5296 22.4707 29.5638 22.4323 29.5638 22.3855C29.5638 22.3301 29.5254 22.2876 29.4869 22.2535C15.7248 8.60162 12.0504 11.7229 12.1017 11.6803L12.1401 11.6462ZM69.1624 11.6462L69.2008 11.6803V11.6846C73.0346 15.4468 76.0776 19.9327 78.1522 24.8803C80.2268 29.8278 81.2914 35.1378 81.2838 40.5C81.2959 49.3648 78.3767 57.9866 72.9778 65.0316C72.9265 65.0998 72.8368 65.1381 72.7599 65.0998C72.6915 65.0572 72.6873 64.9678 72.7129 64.8911C75.8105 55.3442 59.9891 32.1879 51.8113 22.4834C51.7814 22.4494 51.7515 22.411 51.7515 22.3685C51.7515 22.3088 51.7857 22.2663 51.8284 22.2322C65.5947 8.58033 69.2435 11.7229 69.1965 11.6803L69.1624 11.6462ZM40.6512 0C48.8504 0 55.5968 2.23983 61.8177 5.92745C61.8947 5.96578 61.916 6.05094 61.8861 6.12759C61.8562 6.19998 61.7708 6.21701 61.6896 6.19572C53.8237 4.50095 41.8647 11.2758 40.7367 11.9528C40.7111 11.9699 40.6854 11.9869 40.6512 11.9869C40.6128 11.9869 40.5871 11.9699 40.5615 11.9528C37.5621 10.2368 26.5089 4.46262 19.5488 6.2383C19.4719 6.25533 19.3865 6.24256 19.3523 6.16591C19.3377 6.12993 19.3366 6.08992 19.3491 6.05318C19.3617 6.01644 19.3871 5.98542 19.4206 5.96578C25.6416 2.23983 32.4735 0 40.6512 0ZM40.6512 32.4818C40.6982 32.4818 40.7495 32.5201 40.7794 32.5456C52.9393 41.7604 73.7511 64.5419 67.3978 70.9846L67.4063 70.9761L67.4021 70.9846H67.3935C59.9971 77.4548 50.4884 81.017 40.647 81.0042C30.8044 81.016 21.2947 77.4541 13.8962 70.9846L13.8876 70.9761L13.8962 70.9846C7.5556 64.5419 28.3632 41.7604 40.5102 32.5456C40.5444 32.5201 40.6 32.4818 40.6512 32.4818V32.4818ZM362.037 16.8455V56.7153L332.569 16.8157L327.736 16.8072V65.351H333.163V26.3627L362.028 65.3808L367.467 65.3893V16.8455H362.037ZM299.567 15.7171C285.873 15.7171 276.299 26.1583 276.299 41.1004C276.299 56.0681 285.873 66.5135 299.567 66.5135C313.248 66.5135 322.793 56.0681 322.793 41.1004C322.793 26.1625 313.248 15.7171 299.567 15.7171V15.7171ZM299.567 61.3653C289.133 61.3653 281.823 53.032 281.823 41.1004C281.823 29.1816 289.133 20.8483 299.567 20.8483C309.984 20.8483 317.251 29.1816 317.251 41.1004C317.251 53.032 309.984 61.3653 299.567 61.3653ZM379.016 60.6371V42.6759H405.836V37.9238H379.016V21.5594H407.656V16.8115H373.56V65.3893H407.993V60.6371H379.016Z" fill="#FBF503"/>
</g>
<defs>
<clipPath id="clip0_15_59">
<rect width="408" height="81" fill="white"/>
</clipPath>
</defs>
</svg>
